<?xml version="1.0" standalone="no"?><!DOCTYPE svg PUBLIC "-//W3C//DTD SVG 1.1//EN" "http://www.w3.org/Graphics/SVG/1.1/DTD/svg11.dtd"><svg xmlns:xlink="http://www.w3.org/1999/xlink" version="1.1" style="font-family:open sans;font-size:12px;" xmlns="http://www.w3.org/2000/svg" width="1040" height="410"><desc>Created with Highcharts 4.1.5</desc><defs><clipPath id="highcharts-63"><rect x="0" y="0" width="825" height="200"></rect></clipPath></defs><rect x="0" y="0" width="1040" height="410" strokeWidth="0" fill="#FFFFFF" class=" highcharts-background"></rect><g class="highcharts-grid" ></g><g class="highcharts-grid" ></g><g class="highcharts-grid" ><path fill="none" d="M 128 333.5 L 953 333.5" stroke="#D8D8D8" stroke-width="1"  opacity="1"></path><path fill="none" d="M 128 266.5 L 953 266.5" stroke="#D8D8D8" stroke-width="1"  opacity="1"></path><path fill="none" d="M 128 200.5 L 953 200.5" stroke="#D8D8D8" stroke-width="1"  opacity="1"></path><path fill="none" d="M 128 132.5 L 953 132.5" stroke="#D8D8D8" stroke-width="1"  opacity="1"></path></g><g class="highcharts-grid" ><path fill="none" d="M 128 333.5 L 953 333.5" stroke="#D8D8D8" stroke-width="1"  opacity="1"></path><path fill="none" d="M 128 266.5 L 953 266.5" stroke="#D8D8D8" stroke-width="1"  opacity="1"></path><path fill="none" d="M 128 200.5 L 953 200.5" stroke="#D8D8D8" stroke-width="1"  opacity="1"></path><path fill="none" d="M 128 132.5 L 953 132.5" stroke="#D8D8D8" stroke-width="1"  opacity="1"></path></g><g class="highcharts-axis" ><path fill="none" d="M 202.5 333 L 202.5 343" stroke="#C0D0E0" stroke-width="1" opacity="1"></path><path fill="none" d="M 277.5 333 L 277.5 343" stroke="#C0D0E0" stroke-width="1" opacity="1"></path><path fill="none" d="M 352.5 333 L 352.5 343" stroke="#C0D0E0" stroke-width="1" opacity="1"></path><path fill="none" d="M 427.5 333 L 427.5 343" stroke="#C0D0E0" stroke-width="1" opacity="1"></path><path fill="none" d="M 502.5 333 L 502.5 343" stroke="#C0D0E0" stroke-width="1" opacity="1"></path><path fill="none" d="M 577.5 333 L 577.5 343" stroke="#C0D0E0" stroke-width="1" opacity="1"></path><path fill="none" d="M 652.5 333 L 652.5 343" stroke="#C0D0E0" stroke-width="1" opacity="1"></path><path fill="none" d="M 727.5 333 L 727.5 343" stroke="#C0D0E0" stroke-width="1" opacity="1"></path><path fill="none" d="M 802.5 333 L 802.5 343" stroke="#C0D0E0" stroke-width="1" opacity="1"></path><path fill="none" d="M 877.5 333 L 877.5 343" stroke="#C0D0E0" stroke-width="1" opacity="1"></path><path fill="none" d="M 953.5 333 L 953.5 343" stroke="#C0D0E0" stroke-width="1" opacity="1"></path><path fill="none" d="M 127.5 333 L 127.5 343" stroke="#C0D0E0" stroke-width="1" opacity="1"></path><path fill="none" d="M 128 333.5 L 953 333.5" stroke="#C0D0E0" stroke-width="1"  visibility="visible"></path></g><g class="highcharts-axis" ><path fill="none" d="M 202.5 133 L 202.5 123" stroke="#C0D0E0" stroke-width="1" opacity="1"></path><path fill="none" d="M 277.5 133 L 277.5 123" stroke="#C0D0E0" stroke-width="1" opacity="1"></path><path fill="none" d="M 352.5 133 L 352.5 123" stroke="#C0D0E0" stroke-width="1" opacity="1"></path><path fill="none" d="M 427.5 133 L 427.5 123" stroke="#C0D0E0" stroke-width="1" opacity="1"></path><path fill="none" d="M 502.5 133 L 502.5 123" stroke="#C0D0E0" stroke-width="1" opacity="1"></path><path fill="none" d="M 577.5 133 L 577.5 123" stroke="#C0D0E0" stroke-width="1" opacity="1"></path><path fill="none" d="M 652.5 133 L 652.5 123" stroke="#C0D0E0" stroke-width="1" opacity="1"></path><path fill="none" d="M 727.5 133 L 727.5 123" stroke="#C0D0E0" stroke-width="1" opacity="1"></path><path fill="none" d="M 802.5 133 L 802.5 123" stroke="#C0D0E0" stroke-width="1" opacity="1"></path><path fill="none" d="M 877.5 133 L 877.5 123" stroke="#C0D0E0" stroke-width="1" opacity="1"></path><path fill="none" d="M 953.5 133 L 953.5 123" stroke="#C0D0E0" stroke-width="1" opacity="1"></path><path fill="none" d="M 127.5 133 L 127.5 123" stroke="#C0D0E0" stroke-width="1" opacity="1"></path><path fill="none" d="M 128 132.5 L 953 132.5" stroke="#C0D0E0" stroke-width="1"  visibility="visible"></path></g><g class="highcharts-axis" ><text x="1013.953125"  text-anchor="middle" transform="translate(0,0) rotate(90 1013.953125 233)" class=" highcharts-yaxis-title" style="color:#000000;fill:#000000;" visibility="visible" y="233"><tspan>Nicholas Cage</tspan></text></g><g class="highcharts-axis" ><text x="26.203125"  text-anchor="middle" transform="translate(0,0) rotate(270 26.203125 233)" class=" highcharts-yaxis-title" style="color:#ba0f27;fill:#ba0f27;" visibility="visible" y="233"><tspan>Swimming pool drownings</tspan></text></g><g class="highcharts-series-group" ><g class="highcharts-series" visibility="visible"  transform="translate(128,133) scale(1 1)" clip-path="url(#highcharts-63)"><path fill="none" d="M 37.5 133.33333333333331 C 37.5 133.33333333333331 82.5 133.33333333333331 112.5 133.33333333333331 C 142.5 133.33333333333331 157.5 133.33333333333331 187.5 133.33333333333331 C 217.5 133.33333333333331 232.5 100 262.5 100 C 292.5 100 307.5 166.66666666666666 337.5 166.66666666666666 C 367.5 166.66666666666666 382.5 166.66666666666666 412.5 166.66666666666666 C 442.5 166.66666666666666 457.5 146.66666666666663 487.5 133.33333333333331 C 517.5 119.99999999999999 532.5 113.33333333333333 562.5 100 C 592.5 86.66666666666666 607.5 66.66666666666666 637.5 66.66666666666666 C 667.5 66.66666666666666 682.5 166.66666666666666 712.5 166.66666666666666 C 742.5 166.66666666666666 787.5 66.66666666666666 787.5 66.66666666666666" stroke="#000000" stroke-width="2"  stroke-linejoin="round" stroke-linecap="round"></path></g><g class="highcharts-markers" visibility="visible"  transform="translate(128,133) scale(1 1)" clip-path="none"><path fill="#000000" d="M 787 62.66666666666666 C 792.328 62.66666666666666 792.328 70.66666666666666 787 70.66666666666666 C 781.672 70.66666666666666 781.672 62.66666666666666 787 62.66666666666666 Z"></path><path fill="#000000" d="M 712 162.66666666666666 C 717.328 162.66666666666666 717.328 170.66666666666666 712 170.66666666666666 C 706.672 170.66666666666666 706.672 162.66666666666666 712 162.66666666666666 Z"></path><path fill="#000000" d="M 637 62.66666666666666 C 642.328 62.66666666666666 642.328 70.66666666666666 637 70.66666666666666 C 631.672 70.66666666666666 631.672 62.66666666666666 637 62.66666666666666 Z"></path><path fill="#000000" d="M 562 96 C 567.328 96 567.328 104 562 104 C 556.672 104 556.672 96 562 96 Z"></path><path fill="#000000" d="M 487 129.33333333333331 C 492.328 129.33333333333331 492.328 137.33333333333331 487 137.33333333333331 C 481.672 137.33333333333331 481.672 129.33333333333331 487 129.33333333333331 Z"></path><path fill="#000000" d="M 412 162.66666666666666 C 417.328 162.66666666666666 417.328 170.66666666666666 412 170.66666666666666 C 406.672 170.66666666666666 406.672 162.66666666666666 412 162.66666666666666 Z"></path><path fill="#000000" d="M 337 162.66666666666666 C 342.328 162.66666666666666 342.328 170.66666666666666 337 170.66666666666666 C 331.672 170.66666666666666 331.672 162.66666666666666 337 162.66666666666666 Z"></path><path fill="#000000" d="M 262 96 C 267.328 96 267.328 104 262 104 C 256.672 104 256.672 96 262 96 Z"></path><path fill="#000000" d="M 187 129.33333333333331 C 192.328 129.33333333333331 192.328 137.33333333333331 187 137.33333333333331 C 181.672 137.33333333333331 181.672 129.33333333333331 187 129.33333333333331 Z"></path><path fill="#000000" d="M 112 129.33333333333331 C 117.328 129.33333333333331 117.328 137.33333333333331 112 137.33333333333331 C 106.672 137.33333333333331 106.672 129.33333333333331 112 129.33333333333331 Z"></path><path fill="#000000" d="M 37 129.33333333333331 C 42.328 129.33333333333331 42.328 137.33333333333331 37 137.33333333333331 C 31.672 137.33333333333331 31.672 129.33333333333331 37 129.33333333333331 Z"></path></g><g class="highcharts-series" visibility="visible"  transform="translate(128,133) scale(1 1)" clip-path="url(#highcharts-63)"><path fill="none" d="M 37.5 103.33333333333333 C 37.5 103.33333333333333 82.5 126.66666666666666 112.5 126.66666666666666 C 142.5 126.66666666666666 157.5 126.66666666666666 187.5 126.66666666666666 C 217.5 126.66666666666666 232.5 128.66666666666666 262.5 140 C 292.5 151.33333333333334 307.5 183.33333333333334 337.5 183.33333333333334 C 367.5 183.33333333333334 382.5 153.33333333333334 412.5 150 C 442.5 146.66666666666666 457.5 148.66666666666666 487.5 146.66666666666666 C 517.5 144.66666666666666 532.5 146.66666666666666 562.5 140 C 592.5 133.33333333333334 607.5 56.66666666666666 637.5 56.66666666666666 C 667.5 56.66666666666666 682.5 153.33333333333331 712.5 153.33333333333331 C 742.5 153.33333333333331 787.5 126.66666666666666 787.5 126.66666666666666" stroke="#ba0f27" stroke-width="2"  stroke-linejoin="round" stroke-linecap="round"></path></g><g class="highcharts-markers" visibility="visible"  transform="translate(128,133) scale(1 1)" clip-path="none"><path fill="#ba0f27" d="M 787 122.66666666666666 L 791 126.66666666666666 787 130.66666666666666 783 126.66666666666666 Z"></path><path fill="#ba0f27" d="M 712 149.33333333333331 L 716 153.33333333333331 712 157.33333333333331 708 153.33333333333331 Z"></path><path fill="#ba0f27" d="M 637 52.66666666666666 L 641 56.66666666666666 637 60.66666666666666 633 56.66666666666666 Z"></path><path fill="#ba0f27" d="M 562 136 L 566 140 562 144 558 140 Z"></path><path fill="#ba0f27" d="M 487 142.66666666666666 L 491 146.66666666666666 487 150.66666666666666 483 146.66666666666666 Z"></path><path fill="#ba0f27" d="M 412 146 L 416 150 412 154 408 150 Z"></path><path fill="#ba0f27" d="M 337 179.33333333333334 L 341 183.33333333333334 337 187.33333333333334 333 183.33333333333334 Z"></path><path fill="#ba0f27" d="M 262 136 L 266 140 262 144 258 140 Z"></path><path fill="#ba0f27" d="M 187 122.66666666666666 L 191 126.66666666666666 187 130.66666666666666 183 126.66666666666666 Z"></path><path fill="#ba0f27" d="M 112 122.66666666666666 L 116 126.66666666666666 112 130.66666666666666 108 126.66666666666666 Z"></path><path fill="#ba0f27" d="M 37 99.33333333333333 L 41 103.33333333333333 37 107.33333333333333 33 103.33333333333333 Z"></path></g></g><text x="520" text-anchor="middle" class="highcharts-title"  style="color:#777;font-size:18px;fill:#777;width:976px;" y="24"><tspan style="fill:#ba0f27;font-size:24px;font-weight:bold;font-family: 'lora'">Number of people who drowned by falling into a pool</tspan><tspan style="font-family: 'lora'" x="520" dy="21"> correlates with </tspan><tspan style="fill:#000000;font-size:24px;font-weight:bold;font-family: 'lora'" x="520" dy="29">Films Nicolas Cage appeared in</tspan></text><g class="highcharts-legend"  transform="translate(359,368)"><g ><g><g class="highcharts-legend-item"  transform="translate(8,3)"><path fill="none" d="M 0 11 L 16 11" stroke="#000000" stroke-width="2"></path><path fill="#000000" d="M 8 7 C 13.328 7 13.328 15 8 15 C 2.6719999999999997 15 2.6719999999999997 7 8 7 Z"></path><text x="21" style="color:#333333;font-size:12px;font-weight:bold;cursor:pointer;fill:#333333;" text-anchor="start"  y="15"><tspan>Nicholas Cage</tspan></text></g><g class="highcharts-legend-item"  transform="translate(133.6875,3)"><path fill="none" d="M 0 11 L 16 11" stroke="#ba0f27" stroke-width="2"></path><path fill="#ba0f27" d="M 8 7 L 12 11 8 15 4 11 Z"></path><text x="21" y="15" style="color:#333333;font-size:12px;font-weight:bold;cursor:pointer;fill:#333333;" text-anchor="start" ><tspan>Swimming pool drownings</tspan></text></g></g></g></g><g class="highcharts-axis-labels highcharts-xaxis-labels" ><text x="165.5" style="color:#000000;cursor:default;font-size:11px;fill:#000000;width:75;text-overflow:ellipsis;" text-anchor="middle" transform="translate(0,0)" y="352" opacity="1"><tspan>1999</tspan></text><text x="240.5" style="color:#000000;cursor:default;font-size:11px;fill:#000000;width:75;text-overflow:ellipsis;" text-anchor="middle" transform="translate(0,0)" y="352" opacity="1"><tspan>2000</tspan></text><text x="315.5" style="color:#000000;cursor:default;font-size:11px;fill:#000000;width:75;text-overflow:ellipsis;" text-anchor="middle" transform="translate(0,0)" y="352" opacity="1"><tspan>2001</tspan></text><text x="390.5" style="color:#000000;cursor:default;font-size:11px;fill:#000000;width:75;text-overflow:ellipsis;" text-anchor="middle" transform="translate(0,0)" y="352" opacity="1"><tspan>2002</tspan></text><text x="465.5" style="color:#000000;cursor:default;font-size:11px;fill:#000000;width:75;text-overflow:ellipsis;" text-anchor="middle" transform="translate(0,0)" y="352" opacity="1"><tspan>2003</tspan></text><text x="540.5" style="color:#000000;cursor:default;font-size:11px;fill:#000000;width:75;text-overflow:ellipsis;" text-anchor="middle" transform="translate(0,0)" y="352" opacity="1"><tspan>2004</tspan></text><text x="615.5" style="color:#000000;cursor:default;font-size:11px;fill:#000000;width:75;text-overflow:ellipsis;" text-anchor="middle" transform="translate(0,0)" y="352" opacity="1"><tspan>2005</tspan></text><text x="690.5" style="color:#000000;cursor:default;font-size:11px;fill:#000000;width:75;text-overflow:ellipsis;" text-anchor="middle" transform="translate(0,0)" y="352" opacity="1"><tspan>2006</tspan></text><text x="765.5" style="color:#000000;cursor:default;font-size:11px;fill:#000000;width:75;text-overflow:ellipsis;" text-anchor="middle" transform="translate(0,0)" y="352" opacity="1"><tspan>2007</tspan></text><text x="840.5" style="color:#000000;cursor:default;font-size:11px;fill:#000000;width:75;text-overflow:ellipsis;" text-anchor="middle" transform="translate(0,0)" y="352" opacity="1"><tspan>2008</tspan></text><text x="915.5" style="color:#000000;cursor:default;font-size:11px;fill:#000000;width:75;text-overflow:ellipsis;" text-anchor="middle" transform="translate(0,0)" y="352" opacity="1"><tspan>2009</tspan></text></g><g class="highcharts-axis-labels highcharts-xaxis-labels" ><text x="165.5" style="color:#ba0f27;cursor:default;font-size:11px;fill:#ba0f27;width:75;text-overflow:ellipsis;" text-anchor="middle" transform="translate(0,0)" y="118" opacity="1"><tspan>1999</tspan></text><text x="240.5" style="color:#ba0f27;cursor:default;font-size:11px;fill:#ba0f27;width:75;text-overflow:ellipsis;" text-anchor="middle" transform="translate(0,0)" y="118" opacity="1"><tspan>2000</tspan></text><text x="315.5" style="color:#ba0f27;cursor:default;font-size:11px;fill:#ba0f27;width:75;text-overflow:ellipsis;" text-anchor="middle" transform="translate(0,0)" y="118" opacity="1"><tspan>2001</tspan></text><text x="390.5" style="color:#ba0f27;cursor:default;font-size:11px;fill:#ba0f27;width:75;text-overflow:ellipsis;" text-anchor="middle" transform="translate(0,0)" y="118" opacity="1"><tspan>2002</tspan></text><text x="465.5" style="color:#ba0f27;cursor:default;font-size:11px;fill:#ba0f27;width:75;text-overflow:ellipsis;" text-anchor="middle" transform="translate(0,0)" y="118" opacity="1"><tspan>2003</tspan></text><text x="540.5" style="color:#ba0f27;cursor:default;font-size:11px;fill:#ba0f27;width:75;text-overflow:ellipsis;" text-anchor="middle" transform="translate(0,0)" y="118" opacity="1"><tspan>2004</tspan></text><text x="615.5" style="color:#ba0f27;cursor:default;font-size:11px;fill:#ba0f27;width:75;text-overflow:ellipsis;" text-anchor="middle" transform="translate(0,0)" y="118" opacity="1"><tspan>2005</tspan></text><text x="690.5" style="color:#ba0f27;cursor:default;font-size:11px;fill:#ba0f27;width:75;text-overflow:ellipsis;" text-anchor="middle" transform="translate(0,0)" y="118" opacity="1"><tspan>2006</tspan></text><text x="765.5" style="color:#ba0f27;cursor:default;font-size:11px;fill:#ba0f27;width:75;text-overflow:ellipsis;" text-anchor="middle" transform="translate(0,0)" y="118" opacity="1"><tspan>2007</tspan></text><text x="840.5" style="color:#ba0f27;cursor:default;font-size:11px;fill:#ba0f27;width:75;text-overflow:ellipsis;" text-anchor="middle" transform="translate(0,0)" y="118" opacity="1"><tspan>2008</tspan></text><text x="915.5" style="color:#ba0f27;cursor:default;font-size:11px;fill:#ba0f27;width:75;text-overflow:ellipsis;" text-anchor="middle" transform="translate(0,0)" y="118" opacity="1"><tspan>2009</tspan></text></g><g class="highcharts-axis-labels highcharts-yaxis-labels" ><text x="968" style="color:#000000;cursor:default;font-size:11px;fill:#000000;width:333px;text-overflow:clip;" text-anchor="start" transform="translate(0,0)" y="336" opacity="1"><tspan>0 films</tspan></text><text x="968" style="color:#000000;cursor:default;font-size:11px;fill:#000000;width:333px;text-overflow:clip;" text-anchor="start" transform="translate(0,0)" y="270" opacity="1"><tspan>2 films</tspan></text><text x="968" style="color:#000000;cursor:default;font-size:11px;fill:#000000;width:333px;text-overflow:clip;" text-anchor="start" transform="translate(0,0)" y="203" opacity="1"><tspan>4 films</tspan></text><text x="968" style="color:#000000;cursor:default;font-size:11px;fill:#000000;width:333px;text-overflow:clip;" text-anchor="start" transform="translate(0,0)" y="136" opacity="1"><tspan>6 films</tspan></text></g><g class="highcharts-axis-labels highcharts-yaxis-labels" ><text x="113" style="color:#ba0f27;cursor:default;font-size:11px;fill:#ba0f27;width:333px;text-overflow:clip;" text-anchor="end" transform="translate(0,0)" y="336" opacity="1"><tspan>80 drownings</tspan></text><text x="113" style="color:#ba0f27;cursor:default;font-size:11px;fill:#ba0f27;width:333px;text-overflow:clip;" text-anchor="end" transform="translate(0,0)" y="270" opacity="1"><tspan>100 drownings</tspan></text><text x="113" style="color:#ba0f27;cursor:default;font-size:11px;fill:#ba0f27;width:333px;text-overflow:clip;" text-anchor="end" transform="translate(0,0)" y="203" opacity="1"><tspan>120 drownings</tspan></text><text x="113" style="color:#ba0f27;cursor:default;font-size:11px;fill:#ba0f27;width:333px;text-overflow:clip;" text-anchor="end" transform="translate(0,0)" y="136" opacity="1"><tspan>140 drownings</tspan></text></g><g class="highcharts-tooltip"  style="cursor:default;padding:0;white-space:nowrap;" transform="translate(0,-9999)"><path fill="none" d="M 3 0 L 13 0 C 16 0 16 0 16 3 L 16 13 C 16 16 16 16 13 16 L 3 16 C 0 16 0 16 0 13 L 0 3 C 0 0 0 0 3 0"  stroke="black" stroke-opacity="0.049999999999999996" stroke-width="5" transform="translate(1, 1)"></path><path fill="none" d="M 3 0 L 13 0 C 16 0 16 0 16 3 L 16 13 C 16 16 16 16 13 16 L 3 16 C 0 16 0 16 0 13 L 0 3 C 0 0 0 0 3 0"  stroke="black" stroke-opacity="0.09999999999999999" stroke-width="3" transform="translate(1, 1)"></path><path fill="none" d="M 3 0 L 13 0 C 16 0 16 0 16 3 L 16 13 C 16 16 16 16 13 16 L 3 16 C 0 16 0 16 0 13 L 0 3 C 0 0 0 0 3 0"  stroke="black" stroke-opacity="0.15" stroke-width="1" transform="translate(1, 1)"></path><path fill="rgb(249, 249, 249)" fill-opacity=" .85" d="M 3 0 L 13 0 C 16 0 16 0 16 3 L 16 13 C 16 16 16 16 13 16 L 3 16 C 0 16 0 16 0 13 L 0 3 C 0 0 0 0 3 0"></path><text x="8"  style="font-size:12px;color:#333333;fill:#333333;" transform="translate(0,20)"></text></g><text x="1030" text-anchor="end"  style="cursor:pointer;color:#909090;font-size:9px;fill:#909090;" y="405">tylervigen.com</text></svg>